<svg width="214" height="47" viewBox="0 0 214 47" fill="none"
    xmlns="http://www.w3.org/2000/svg">
    <path d="M0.5 46V2.25H9.3125V19.6875H11.75V28.3125H9.3125V46H0.5ZM15.1875 28.3125V19.6875H17.625V2.25H26.4375V46H17.625V28.3125H15.1875Z" fill="white"/>
    <path d="M32.0625 5.3125C32.0625 3.60417 32.8333 2.3125 34.375 1.4375C35.0833 1.02083 35.8333 0.8125 36.625 0.8125C38.375 0.8125 39.6875 1.58333 40.5625 3.125C40.9375 3.83333 41.125 4.5625 41.125 5.3125C41.125 7.0625 40.3542 8.375 38.8125 9.25C38.1042 9.625 37.375 9.8125 36.625 9.8125C34.8333 9.8125 33.5 9.02083 32.625 7.4375C32.25 6.77083 32.0625 6.0625 32.0625 5.3125ZM32.5 46V12.25H40.875V46H32.5Z" fill="white"/>
    <path d="M44.6875 10.375H54L63.125 37.375L60.3125 46H55.5625L44.6875 10.375ZM59.5625 18.9375L62.1875 10.375H71.5L64.8125 31.6875H64L59.5625 18.9375Z" fill="white"/>
    <path d="M74.3125 36.3125V19.9375C74.3542 17.8958 75.2917 15.8958 77.125 13.9375C79.375 11.6042 82.125 10.4167 85.375 10.375V18.25C84.1667 18.25 83.3333 18.7708 82.875 19.8125C82.75 20.0625 82.6875 20.2917 82.6875 20.5V23.625H92V20.5625C91.9583 19.0208 90.875 18.25 88.75 18.25V10.375C91.7917 10.375 94.4583 11.4167 96.75 13.5C98.75 15.3333 99.7708 17.4583 99.8125 19.875V31.6875H82.6875V36.3125C82.9792 37.5208 83.8958 38.1875 85.4375 38.3125V46C81.5208 46 78.4167 44.3958 76.125 41.1875C74.9167 39.4792 74.3125 37.8542 74.3125 36.3125ZM88.75 46V38.375C91 38.3333 92.4375 37.2708 93.0625 35.1875L99.875 37.75C99.25 40.4167 97.6667 42.5625 95.125 44.1875C93.1667 45.3958 91.0417 46 88.75 46Z" fill="white"/>
    <path d="M104.875 46V15.25H105.375L113.688 28.625V46H104.875ZM104.875 8V2.25H112.062L132.688 35.5V46H128.5L104.875 8ZM123.875 14.875V2.25H132.688V28.25H132.188L123.875 14.875Z" fill="white"/>
    <path d="M137.688 36.3125V20C137.688 17.9583 138.583 15.9583 140.375 14C142.625 11.625 145.479 10.4167 148.938 10.375V18.5C147.062 18.6667 146.062 19.4583 145.938 20.875V35.4375C146.021 37.0625 147.021 37.8958 148.938 37.9375V46.0625C144.854 46.0625 141.688 44.4167 139.438 41.125C138.271 39.4167 137.688 37.8125 137.688 36.3125ZM151.812 46.0625V37.9375C153.562 37.7292 154.521 36.9375 154.688 35.5625L154.625 20.875C154.333 19.375 153.375 18.5833 151.75 18.5V10.375C155.667 10.375 158.729 11.9583 160.938 15.125C162.104 16.8333 162.688 18.4583 162.688 20V36.3125C162.688 38.3958 161.792 40.4375 160 42.4375C157.833 44.8125 155.104 46.0208 151.812 46.0625Z" fill="white"/>
    <path d="M165.938 18.4375V10.375H170.312V1.25H178.688V10.375H182.812V18.5H178.688V35.0625C178.771 36.5625 179.542 37.3333 181 37.375H182.812L184.688 46H180.938C175.479 46 172.146 43.9375 170.938 39.8125C170.521 38.3125 170.312 36.5208 170.312 34.4375V18.4375H165.938Z" fill="white"/>
    <path d="M187.688 36.3125V19.9375C187.729 17.8958 188.667 15.8958 190.5 13.9375C192.75 11.6042 195.5 10.4167 198.75 10.375V18.25C197.542 18.25 196.708 18.7708 196.25 19.8125C196.125 20.0625 196.062 20.2917 196.062 20.5V23.625H205.375V20.5625C205.333 19.0208 204.25 18.25 202.125 18.25V10.375C205.167 10.375 207.833 11.4167 210.125 13.5C212.125 15.3333 213.146 17.4583 213.188 19.875V31.6875H196.062V36.3125C196.354 37.5208 197.271 38.1875 198.812 38.3125V46C194.896 46 191.792 44.3958 189.5 41.1875C188.292 39.4792 187.688 37.8542 187.688 36.3125ZM202.125 46V38.375C204.375 38.3333 205.812 37.2708 206.438 35.1875L213.25 37.75C212.625 40.4167 211.042 42.5625 208.5 44.1875C206.542 45.3958 204.417 46 202.125 46Z" fill="white"/>
</svg>
